<svg width="286" height="154" viewBox="0 0 286 154" fill="none" xmlns="http://www.w3.org/2000/svg">
<path d="M73.0191 48.6426H99.0247L91.0923 70.6333C85.4294 67.862 78.1937 64.9886 69.4104 62.0087L69.3979 62.0044L69.3852 62.0003C60.2455 59.0343 53.6695 56.3138 49.5475 53.8589C45.767 51.6073 44.0461 48.6378 44.0461 44.815C44.0461 41.0473 45.178 38.4926 47.183 36.7991L47.2059 36.7797L47.2283 36.7597C49.3506 34.8549 52.2128 33.8192 56.0143 33.8192C60.4809 33.8192 63.9672 35.0533 66.6435 37.3876L66.6625 37.4042L66.682 37.4204C69.2959 39.5863 70.7799 42.6232 71.0225 46.7596L71.1329 48.6426H73.0191ZM226.103 148.579V92.9096H267.424H269.424V90.9096V63.9026V61.9026H267.424H226.103V35.8498H282H284V33.8498V6.0306V4.0306H282H189.486H187.486V6.0306V85.749L158.486 5.35197L158.009 4.0306H156.604H116.522H115.117L114.64 5.35197L107.084 26.2989C104.452 21.5062 100.866 17.3322 96.3189 13.7975C86.2954 5.87033 73.2025 2 57.2289 2C41.5158 2 28.5615 5.87489 18.5439 13.7974C8.4289 21.6603 3.40488 32.6247 3.40488 46.4395C3.40488 55.6837 5.57188 63.3856 10.0833 69.3708C14.4416 75.1527 19.6744 79.5612 25.781 82.5527C31.7101 85.4572 39.3063 88.3353 48.5396 91.1955L48.5492 91.1985L48.5588 91.2014C54.874 93.0883 59.6393 94.7525 62.8994 96.1913L62.9124 96.1971L62.9256 96.2027C66.2376 97.6082 68.9117 99.3693 70.9954 101.459L71.0155 101.48L71.0363 101.499C73.0442 103.401 74.0556 105.776 74.0556 108.779C74.0556 112.429 72.8001 115.148 70.3548 117.165C67.8459 119.1 64.2866 120.181 59.4557 120.181C54.8488 120.181 51.3066 118.944 48.6423 116.628C45.9973 114.197 44.3356 110.645 43.8333 105.733L43.6496 103.936H41.8437H5H2.94137L3.00083 105.994C3.2808 115.682 5.94941 124.075 11.0791 131.079L11.0869 131.089L11.0948 131.1C16.3198 138.041 23.2313 143.263 31.7711 146.773C40.2817 150.272 49.8584 152 60.4679 152C65.7491 152 70.7156 151.529 75.3603 150.579H101.339H102.774L103.234 149.218L111.277 125.399H161.444L169.487 149.218L169.947 150.579H171.382H187.486H189.486H208.023H210.871H224.103H226.103V148.579ZM121.726 94.5953L136.371 50.696L151.187 94.5953H121.726Z" fill="white" stroke="#252525" stroke-width="4"/>
</svg>
