<svg width="137" height="72" viewBox="0 0 137 72" fill="none" xmlns="http://www.w3.org/2000/svg">
<path d="M78.0849 58.8818H51.8528L47.6477 71.299H29.7257L55.1569 1.00139H74.9811L100.412 71.299H82.2901L78.0849 58.8818ZM73.6796 45.6634L64.9689 19.9277L56.3583 45.6634H73.6796Z" fill="white"/>
<path d="M137 1.00139V14.7204H108.365V29.541H129.791V42.8595H108.365V71.299H91.244V1.00139H137Z" fill="white"/>
<path d="M27.4336 72C22.294 72 17.6883 71.1655 13.6167 69.4965C9.54502 67.8275 6.27435 65.3574 3.80466 62.0862C1.40172 58.815 0.133497 54.8762 0 50.2698H18.2223C18.4893 52.8734 19.3904 54.8762 20.9256 56.2782C22.4608 57.6134 24.4633 58.2809 26.933 58.2809C29.4694 58.2809 31.4719 57.7135 32.9403 56.5786C34.4088 55.3769 35.143 53.7413 35.143 51.6718C35.143 49.936 34.5423 48.5007 33.3408 47.3658C32.2061 46.2309 30.771 45.2962 29.0356 44.5619C27.3668 43.8275 24.9639 42.993 21.8267 42.0584C17.2878 40.6565 13.5833 39.2545 10.7131 37.8526C7.84294 36.4506 5.37325 34.3811 3.30405 31.6439C1.23485 28.9068 0.200245 25.3352 0.200245 20.9291C0.200245 14.3866 2.56981 9.27955 7.30895 5.60779C12.0481 1.86926 18.2223 0 25.8316 0C33.5744 0 39.8154 1.86926 44.5546 5.60779C49.2937 9.27955 51.8301 14.42 52.1639 21.0292H33.6412C33.5077 18.7594 32.6733 16.9903 31.1381 15.7218C29.6029 14.3866 27.6338 13.7191 25.2309 13.7191C23.1617 13.7191 21.493 14.2865 20.2248 15.4214C18.9565 16.4896 18.3224 18.0584 18.3224 20.128C18.3224 22.3978 19.3904 24.1669 21.5264 25.4353C23.6623 26.7038 26.9997 28.0723 31.5386 29.541C36.0775 31.0765 39.7487 32.5452 42.5521 33.9471C45.4223 35.3491 47.892 37.3853 49.9612 40.0556C52.0304 42.726 53.065 46.1641 53.065 50.37C53.065 54.3755 52.0304 58.0139 49.9612 61.2851C47.9587 64.5563 45.0218 67.1599 41.1504 69.096C37.279 71.032 32.7067 72 27.4336 72Z" fill="white"/>
</svg>
